%TF.GenerationSoftware,KiCad,Pcbnew,8.0.1*%
%TF.CreationDate,2024-05-12T19:39:20+02:00*%
%TF.ProjectId,lsx-1,6c73782d-312e-46b6-9963-61645f706362,1.0*%
%TF.SameCoordinates,Original*%
%TF.FileFunction,Legend,Bot*%
%TF.FilePolarity,Positive*%
%FSLAX46Y46*%
G04 Gerber Fmt 4.6, Leading zero omitted, Abs format (unit mm)*
G04 Created by KiCad (PCBNEW 8.0.1) date 2024-05-12 19:39:20*
%MOMM*%
%LPD*%
G01*
G04 APERTURE LIST*
%ADD10C,0.127000*%
%ADD11C,0.150000*%
%ADD12C,0.010000*%
%ADD13C,0.750000*%
G04 APERTURE END LIST*
D10*
X89571190Y-63176879D02*
X89099476Y-63176879D01*
X89099476Y-63176879D02*
X89353476Y-63467165D01*
X89353476Y-63467165D02*
X89244619Y-63467165D01*
X89244619Y-63467165D02*
X89172048Y-63503451D01*
X89172048Y-63503451D02*
X89135762Y-63539736D01*
X89135762Y-63539736D02*
X89099476Y-63612308D01*
X89099476Y-63612308D02*
X89099476Y-63793736D01*
X89099476Y-63793736D02*
X89135762Y-63866308D01*
X89135762Y-63866308D02*
X89172048Y-63902594D01*
X89172048Y-63902594D02*
X89244619Y-63938879D01*
X89244619Y-63938879D02*
X89462333Y-63938879D01*
X89462333Y-63938879D02*
X89534905Y-63902594D01*
X89534905Y-63902594D02*
X89571190Y-63866308D01*
X88881762Y-63176879D02*
X88627762Y-63938879D01*
X88627762Y-63938879D02*
X88373762Y-63176879D01*
X88192333Y-63176879D02*
X87720619Y-63176879D01*
X87720619Y-63176879D02*
X87974619Y-63467165D01*
X87974619Y-63467165D02*
X87865762Y-63467165D01*
X87865762Y-63467165D02*
X87793191Y-63503451D01*
X87793191Y-63503451D02*
X87756905Y-63539736D01*
X87756905Y-63539736D02*
X87720619Y-63612308D01*
X87720619Y-63612308D02*
X87720619Y-63793736D01*
X87720619Y-63793736D02*
X87756905Y-63866308D01*
X87756905Y-63866308D02*
X87793191Y-63902594D01*
X87793191Y-63902594D02*
X87865762Y-63938879D01*
X87865762Y-63938879D02*
X88083476Y-63938879D01*
X88083476Y-63938879D02*
X88156048Y-63902594D01*
X88156048Y-63902594D02*
X88192333Y-63866308D01*
X89498619Y-65630433D02*
X89498619Y-66247290D01*
X89498619Y-66247290D02*
X89462333Y-66319862D01*
X89462333Y-66319862D02*
X89426048Y-66356148D01*
X89426048Y-66356148D02*
X89353476Y-66392433D01*
X89353476Y-66392433D02*
X89208333Y-66392433D01*
X89208333Y-66392433D02*
X89135762Y-66356148D01*
X89135762Y-66356148D02*
X89099476Y-66319862D01*
X89099476Y-66319862D02*
X89063190Y-66247290D01*
X89063190Y-66247290D02*
X89063190Y-65630433D01*
X88700333Y-66392433D02*
X88700333Y-65630433D01*
X88700333Y-65630433D02*
X88410047Y-65630433D01*
X88410047Y-65630433D02*
X88337476Y-65666719D01*
X88337476Y-65666719D02*
X88301190Y-65703005D01*
X88301190Y-65703005D02*
X88264904Y-65775576D01*
X88264904Y-65775576D02*
X88264904Y-65884433D01*
X88264904Y-65884433D02*
X88301190Y-65957005D01*
X88301190Y-65957005D02*
X88337476Y-65993290D01*
X88337476Y-65993290D02*
X88410047Y-66029576D01*
X88410047Y-66029576D02*
X88700333Y-66029576D01*
X87938333Y-66392433D02*
X87938333Y-65630433D01*
X87938333Y-65630433D02*
X87756904Y-65630433D01*
X87756904Y-65630433D02*
X87648047Y-65666719D01*
X87648047Y-65666719D02*
X87575476Y-65739290D01*
X87575476Y-65739290D02*
X87539190Y-65811862D01*
X87539190Y-65811862D02*
X87502904Y-65957005D01*
X87502904Y-65957005D02*
X87502904Y-66065862D01*
X87502904Y-66065862D02*
X87539190Y-66211005D01*
X87539190Y-66211005D02*
X87575476Y-66283576D01*
X87575476Y-66283576D02*
X87648047Y-66356148D01*
X87648047Y-66356148D02*
X87756904Y-66392433D01*
X87756904Y-66392433D02*
X87938333Y-66392433D01*
X87176333Y-66392433D02*
X87176333Y-65630433D01*
X89498619Y-68845987D02*
X89498619Y-68083987D01*
X89498619Y-68083987D02*
X89317190Y-68083987D01*
X89317190Y-68083987D02*
X89208333Y-68120273D01*
X89208333Y-68120273D02*
X89135762Y-68192844D01*
X89135762Y-68192844D02*
X89099476Y-68265416D01*
X89099476Y-68265416D02*
X89063190Y-68410559D01*
X89063190Y-68410559D02*
X89063190Y-68519416D01*
X89063190Y-68519416D02*
X89099476Y-68664559D01*
X89099476Y-68664559D02*
X89135762Y-68737130D01*
X89135762Y-68737130D02*
X89208333Y-68809702D01*
X89208333Y-68809702D02*
X89317190Y-68845987D01*
X89317190Y-68845987D02*
X89498619Y-68845987D01*
X88736619Y-68845987D02*
X88736619Y-68083987D01*
X88373762Y-68845987D02*
X88373762Y-68083987D01*
X88373762Y-68083987D02*
X87938333Y-68845987D01*
X87938333Y-68845987D02*
X87938333Y-68083987D01*
X89498619Y-71299541D02*
X89498619Y-70537541D01*
X89498619Y-70537541D02*
X89317190Y-70537541D01*
X89317190Y-70537541D02*
X89208333Y-70573827D01*
X89208333Y-70573827D02*
X89135762Y-70646398D01*
X89135762Y-70646398D02*
X89099476Y-70718970D01*
X89099476Y-70718970D02*
X89063190Y-70864113D01*
X89063190Y-70864113D02*
X89063190Y-70972970D01*
X89063190Y-70972970D02*
X89099476Y-71118113D01*
X89099476Y-71118113D02*
X89135762Y-71190684D01*
X89135762Y-71190684D02*
X89208333Y-71263256D01*
X89208333Y-71263256D02*
X89317190Y-71299541D01*
X89317190Y-71299541D02*
X89498619Y-71299541D01*
X88591476Y-70537541D02*
X88446333Y-70537541D01*
X88446333Y-70537541D02*
X88373762Y-70573827D01*
X88373762Y-70573827D02*
X88301190Y-70646398D01*
X88301190Y-70646398D02*
X88264905Y-70791541D01*
X88264905Y-70791541D02*
X88264905Y-71045541D01*
X88264905Y-71045541D02*
X88301190Y-71190684D01*
X88301190Y-71190684D02*
X88373762Y-71263256D01*
X88373762Y-71263256D02*
X88446333Y-71299541D01*
X88446333Y-71299541D02*
X88591476Y-71299541D01*
X88591476Y-71299541D02*
X88664048Y-71263256D01*
X88664048Y-71263256D02*
X88736619Y-71190684D01*
X88736619Y-71190684D02*
X88772905Y-71045541D01*
X88772905Y-71045541D02*
X88772905Y-70791541D01*
X88772905Y-70791541D02*
X88736619Y-70646398D01*
X88736619Y-70646398D02*
X88664048Y-70573827D01*
X88664048Y-70573827D02*
X88591476Y-70537541D01*
X87938333Y-70537541D02*
X87938333Y-71154398D01*
X87938333Y-71154398D02*
X87902047Y-71226970D01*
X87902047Y-71226970D02*
X87865762Y-71263256D01*
X87865762Y-71263256D02*
X87793190Y-71299541D01*
X87793190Y-71299541D02*
X87648047Y-71299541D01*
X87648047Y-71299541D02*
X87575476Y-71263256D01*
X87575476Y-71263256D02*
X87539190Y-71226970D01*
X87539190Y-71226970D02*
X87502904Y-71154398D01*
X87502904Y-71154398D02*
X87502904Y-70537541D01*
X87248904Y-70537541D02*
X86813476Y-70537541D01*
X87031190Y-71299541D02*
X87031190Y-70537541D01*
X99894666Y-52793187D02*
X99894666Y-53410044D01*
X99894666Y-53410044D02*
X99858380Y-53482616D01*
X99858380Y-53482616D02*
X99822095Y-53518902D01*
X99822095Y-53518902D02*
X99749523Y-53555187D01*
X99749523Y-53555187D02*
X99604380Y-53555187D01*
X99604380Y-53555187D02*
X99531809Y-53518902D01*
X99531809Y-53518902D02*
X99495523Y-53482616D01*
X99495523Y-53482616D02*
X99459237Y-53410044D01*
X99459237Y-53410044D02*
X99459237Y-52793187D01*
X99096380Y-53555187D02*
X99096380Y-52793187D01*
X99096380Y-52793187D02*
X98806094Y-52793187D01*
X98806094Y-52793187D02*
X98733523Y-52829473D01*
X98733523Y-52829473D02*
X98697237Y-52865759D01*
X98697237Y-52865759D02*
X98660951Y-52938330D01*
X98660951Y-52938330D02*
X98660951Y-53047187D01*
X98660951Y-53047187D02*
X98697237Y-53119759D01*
X98697237Y-53119759D02*
X98733523Y-53156044D01*
X98733523Y-53156044D02*
X98806094Y-53192330D01*
X98806094Y-53192330D02*
X99096380Y-53192330D01*
X98334380Y-53555187D02*
X98334380Y-52793187D01*
X98334380Y-52793187D02*
X98152951Y-52793187D01*
X98152951Y-52793187D02*
X98044094Y-52829473D01*
X98044094Y-52829473D02*
X97971523Y-52902044D01*
X97971523Y-52902044D02*
X97935237Y-52974616D01*
X97935237Y-52974616D02*
X97898951Y-53119759D01*
X97898951Y-53119759D02*
X97898951Y-53228616D01*
X97898951Y-53228616D02*
X97935237Y-53373759D01*
X97935237Y-53373759D02*
X97971523Y-53446330D01*
X97971523Y-53446330D02*
X98044094Y-53518902D01*
X98044094Y-53518902D02*
X98152951Y-53555187D01*
X98152951Y-53555187D02*
X98334380Y-53555187D01*
X97572380Y-53555187D02*
X97572380Y-52793187D01*
X99386665Y-55246741D02*
X98914951Y-55246741D01*
X98914951Y-55246741D02*
X99168951Y-55537027D01*
X99168951Y-55537027D02*
X99060094Y-55537027D01*
X99060094Y-55537027D02*
X98987523Y-55573313D01*
X98987523Y-55573313D02*
X98951237Y-55609598D01*
X98951237Y-55609598D02*
X98914951Y-55682170D01*
X98914951Y-55682170D02*
X98914951Y-55863598D01*
X98914951Y-55863598D02*
X98951237Y-55936170D01*
X98951237Y-55936170D02*
X98987523Y-55972456D01*
X98987523Y-55972456D02*
X99060094Y-56008741D01*
X99060094Y-56008741D02*
X99277808Y-56008741D01*
X99277808Y-56008741D02*
X99350380Y-55972456D01*
X99350380Y-55972456D02*
X99386665Y-55936170D01*
X98697237Y-55246741D02*
X98443237Y-56008741D01*
X98443237Y-56008741D02*
X98189237Y-55246741D01*
X98007808Y-55246741D02*
X97536094Y-55246741D01*
X97536094Y-55246741D02*
X97790094Y-55537027D01*
X97790094Y-55537027D02*
X97681237Y-55537027D01*
X97681237Y-55537027D02*
X97608666Y-55573313D01*
X97608666Y-55573313D02*
X97572380Y-55609598D01*
X97572380Y-55609598D02*
X97536094Y-55682170D01*
X97536094Y-55682170D02*
X97536094Y-55863598D01*
X97536094Y-55863598D02*
X97572380Y-55936170D01*
X97572380Y-55936170D02*
X97608666Y-55972456D01*
X97608666Y-55972456D02*
X97681237Y-56008741D01*
X97681237Y-56008741D02*
X97898951Y-56008741D01*
X97898951Y-56008741D02*
X97971523Y-55972456D01*
X97971523Y-55972456D02*
X98007808Y-55936170D01*
X97779019Y-64792233D02*
X97779019Y-64030233D01*
X97779019Y-64030233D02*
X97597590Y-64030233D01*
X97597590Y-64030233D02*
X97488733Y-64066519D01*
X97488733Y-64066519D02*
X97416162Y-64139090D01*
X97416162Y-64139090D02*
X97379876Y-64211662D01*
X97379876Y-64211662D02*
X97343590Y-64356805D01*
X97343590Y-64356805D02*
X97343590Y-64465662D01*
X97343590Y-64465662D02*
X97379876Y-64610805D01*
X97379876Y-64610805D02*
X97416162Y-64683376D01*
X97416162Y-64683376D02*
X97488733Y-64755948D01*
X97488733Y-64755948D02*
X97597590Y-64792233D01*
X97597590Y-64792233D02*
X97779019Y-64792233D01*
X97017019Y-64792233D02*
X97017019Y-64030233D01*
X96654162Y-64792233D02*
X96654162Y-64030233D01*
X96654162Y-64030233D02*
X96218733Y-64792233D01*
X96218733Y-64792233D02*
X96218733Y-64030233D01*
X97779019Y-67245787D02*
X97779019Y-66483787D01*
X97779019Y-66483787D02*
X97597590Y-66483787D01*
X97597590Y-66483787D02*
X97488733Y-66520073D01*
X97488733Y-66520073D02*
X97416162Y-66592644D01*
X97416162Y-66592644D02*
X97379876Y-66665216D01*
X97379876Y-66665216D02*
X97343590Y-66810359D01*
X97343590Y-66810359D02*
X97343590Y-66919216D01*
X97343590Y-66919216D02*
X97379876Y-67064359D01*
X97379876Y-67064359D02*
X97416162Y-67136930D01*
X97416162Y-67136930D02*
X97488733Y-67209502D01*
X97488733Y-67209502D02*
X97597590Y-67245787D01*
X97597590Y-67245787D02*
X97779019Y-67245787D01*
X96871876Y-66483787D02*
X96726733Y-66483787D01*
X96726733Y-66483787D02*
X96654162Y-66520073D01*
X96654162Y-66520073D02*
X96581590Y-66592644D01*
X96581590Y-66592644D02*
X96545305Y-66737787D01*
X96545305Y-66737787D02*
X96545305Y-66991787D01*
X96545305Y-66991787D02*
X96581590Y-67136930D01*
X96581590Y-67136930D02*
X96654162Y-67209502D01*
X96654162Y-67209502D02*
X96726733Y-67245787D01*
X96726733Y-67245787D02*
X96871876Y-67245787D01*
X96871876Y-67245787D02*
X96944448Y-67209502D01*
X96944448Y-67209502D02*
X97017019Y-67136930D01*
X97017019Y-67136930D02*
X97053305Y-66991787D01*
X97053305Y-66991787D02*
X97053305Y-66737787D01*
X97053305Y-66737787D02*
X97017019Y-66592644D01*
X97017019Y-66592644D02*
X96944448Y-66520073D01*
X96944448Y-66520073D02*
X96871876Y-66483787D01*
X96218733Y-66483787D02*
X96218733Y-67100644D01*
X96218733Y-67100644D02*
X96182447Y-67173216D01*
X96182447Y-67173216D02*
X96146162Y-67209502D01*
X96146162Y-67209502D02*
X96073590Y-67245787D01*
X96073590Y-67245787D02*
X95928447Y-67245787D01*
X95928447Y-67245787D02*
X95855876Y-67209502D01*
X95855876Y-67209502D02*
X95819590Y-67173216D01*
X95819590Y-67173216D02*
X95783304Y-67100644D01*
X95783304Y-67100644D02*
X95783304Y-66483787D01*
X95529304Y-66483787D02*
X95093876Y-66483787D01*
X95311590Y-67245787D02*
X95311590Y-66483787D01*
X97379876Y-68973627D02*
X97452448Y-68937341D01*
X97452448Y-68937341D02*
X97561305Y-68937341D01*
X97561305Y-68937341D02*
X97670162Y-68973627D01*
X97670162Y-68973627D02*
X97742733Y-69046198D01*
X97742733Y-69046198D02*
X97779019Y-69118770D01*
X97779019Y-69118770D02*
X97815305Y-69263913D01*
X97815305Y-69263913D02*
X97815305Y-69372770D01*
X97815305Y-69372770D02*
X97779019Y-69517913D01*
X97779019Y-69517913D02*
X97742733Y-69590484D01*
X97742733Y-69590484D02*
X97670162Y-69663056D01*
X97670162Y-69663056D02*
X97561305Y-69699341D01*
X97561305Y-69699341D02*
X97488733Y-69699341D01*
X97488733Y-69699341D02*
X97379876Y-69663056D01*
X97379876Y-69663056D02*
X97343590Y-69626770D01*
X97343590Y-69626770D02*
X97343590Y-69372770D01*
X97343590Y-69372770D02*
X97488733Y-69372770D01*
X97017019Y-69699341D02*
X97017019Y-68937341D01*
X97017019Y-68937341D02*
X96581590Y-69699341D01*
X96581590Y-69699341D02*
X96581590Y-68937341D01*
X96218733Y-69699341D02*
X96218733Y-68937341D01*
X96218733Y-68937341D02*
X96037304Y-68937341D01*
X96037304Y-68937341D02*
X95928447Y-68973627D01*
X95928447Y-68973627D02*
X95855876Y-69046198D01*
X95855876Y-69046198D02*
X95819590Y-69118770D01*
X95819590Y-69118770D02*
X95783304Y-69263913D01*
X95783304Y-69263913D02*
X95783304Y-69372770D01*
X95783304Y-69372770D02*
X95819590Y-69517913D01*
X95819590Y-69517913D02*
X95855876Y-69590484D01*
X95855876Y-69590484D02*
X95928447Y-69663056D01*
X95928447Y-69663056D02*
X96037304Y-69699341D01*
X96037304Y-69699341D02*
X96218733Y-69699341D01*
D11*
X77142980Y-71265820D02*
X78142980Y-71265820D01*
X78142980Y-71265820D02*
X77142980Y-70694392D01*
X77142980Y-70694392D02*
X78142980Y-70694392D01*
X77142980Y-70075344D02*
X77190600Y-70170582D01*
X77190600Y-70170582D02*
X77238219Y-70218201D01*
X77238219Y-70218201D02*
X77333457Y-70265820D01*
X77333457Y-70265820D02*
X77619171Y-70265820D01*
X77619171Y-70265820D02*
X77714409Y-70218201D01*
X77714409Y-70218201D02*
X77762028Y-70170582D01*
X77762028Y-70170582D02*
X77809647Y-70075344D01*
X77809647Y-70075344D02*
X77809647Y-69932487D01*
X77809647Y-69932487D02*
X77762028Y-69837249D01*
X77762028Y-69837249D02*
X77714409Y-69789630D01*
X77714409Y-69789630D02*
X77619171Y-69742011D01*
X77619171Y-69742011D02*
X77333457Y-69742011D01*
X77333457Y-69742011D02*
X77238219Y-69789630D01*
X77238219Y-69789630D02*
X77190600Y-69837249D01*
X77190600Y-69837249D02*
X77142980Y-69932487D01*
X77142980Y-69932487D02*
X77142980Y-70075344D01*
X77809647Y-69313439D02*
X77142980Y-69313439D01*
X77714409Y-69313439D02*
X77762028Y-69265820D01*
X77762028Y-69265820D02*
X77809647Y-69170582D01*
X77809647Y-69170582D02*
X77809647Y-69027725D01*
X77809647Y-69027725D02*
X77762028Y-68932487D01*
X77762028Y-68932487D02*
X77666790Y-68884868D01*
X77666790Y-68884868D02*
X77142980Y-68884868D01*
X77523933Y-68408677D02*
X77523933Y-67646773D01*
X78142980Y-67313439D02*
X78142980Y-66742011D01*
X77142980Y-67027725D02*
X78142980Y-67027725D01*
X77238219Y-65837249D02*
X77190600Y-65884868D01*
X77190600Y-65884868D02*
X77142980Y-66027725D01*
X77142980Y-66027725D02*
X77142980Y-66122963D01*
X77142980Y-66122963D02*
X77190600Y-66265820D01*
X77190600Y-66265820D02*
X77285838Y-66361058D01*
X77285838Y-66361058D02*
X77381076Y-66408677D01*
X77381076Y-66408677D02*
X77571552Y-66456296D01*
X77571552Y-66456296D02*
X77714409Y-66456296D01*
X77714409Y-66456296D02*
X77904885Y-66408677D01*
X77904885Y-66408677D02*
X78000123Y-66361058D01*
X78000123Y-66361058D02*
X78095361Y-66265820D01*
X78095361Y-66265820D02*
X78142980Y-66122963D01*
X78142980Y-66122963D02*
X78142980Y-66027725D01*
X78142980Y-66027725D02*
X78095361Y-65884868D01*
X78095361Y-65884868D02*
X78047742Y-65837249D01*
X77142980Y-65408677D02*
X78142980Y-65408677D01*
X78142980Y-65408677D02*
X78142980Y-65027725D01*
X78142980Y-65027725D02*
X78095361Y-64932487D01*
X78095361Y-64932487D02*
X78047742Y-64884868D01*
X78047742Y-64884868D02*
X77952504Y-64837249D01*
X77952504Y-64837249D02*
X77809647Y-64837249D01*
X77809647Y-64837249D02*
X77714409Y-64884868D01*
X77714409Y-64884868D02*
X77666790Y-64932487D01*
X77666790Y-64932487D02*
X77619171Y-65027725D01*
X77619171Y-65027725D02*
X77619171Y-65408677D01*
D12*
%TO.C,Lg2*%
X85283962Y-54665451D02*
X85366713Y-54692653D01*
X85441806Y-54738084D01*
X85513698Y-54803902D01*
X85552245Y-54848167D01*
X85591656Y-54906561D01*
X85616846Y-54967186D01*
X85630261Y-55036465D01*
X85634348Y-55120822D01*
X85634069Y-55166907D01*
X85631860Y-55208050D01*
X85626294Y-55240182D01*
X85615986Y-55270722D01*
X85599548Y-55307089D01*
X85585600Y-55334328D01*
X85527065Y-55420029D01*
X85455019Y-55489217D01*
X85371346Y-55540341D01*
X85277931Y-55571850D01*
X85244834Y-55578825D01*
X85204360Y-55585694D01*
X85171399Y-55587519D01*
X85137098Y-55584547D01*
X85092600Y-55577026D01*
X85041334Y-55564602D01*
X84950834Y-55526712D01*
X84871745Y-55472435D01*
X84805928Y-55404370D01*
X84755240Y-55325110D01*
X84721540Y-55237255D01*
X84706686Y-55143395D01*
X84712536Y-55046130D01*
X84738799Y-54949820D01*
X84783818Y-54861094D01*
X84844773Y-54786019D01*
X84919584Y-54726241D01*
X85006167Y-54683409D01*
X85102443Y-54659171D01*
X85206328Y-54655176D01*
X85283962Y-54665451D01*
G36*
X85283962Y-54665451D02*
G01*
X85366713Y-54692653D01*
X85441806Y-54738084D01*
X85513698Y-54803902D01*
X85552245Y-54848167D01*
X85591656Y-54906561D01*
X85616846Y-54967186D01*
X85630261Y-55036465D01*
X85634348Y-55120822D01*
X85634069Y-55166907D01*
X85631860Y-55208050D01*
X85626294Y-55240182D01*
X85615986Y-55270722D01*
X85599548Y-55307089D01*
X85585600Y-55334328D01*
X85527065Y-55420029D01*
X85455019Y-55489217D01*
X85371346Y-55540341D01*
X85277931Y-55571850D01*
X85244834Y-55578825D01*
X85204360Y-55585694D01*
X85171399Y-55587519D01*
X85137098Y-55584547D01*
X85092600Y-55577026D01*
X85041334Y-55564602D01*
X84950834Y-55526712D01*
X84871745Y-55472435D01*
X84805928Y-55404370D01*
X84755240Y-55325110D01*
X84721540Y-55237255D01*
X84706686Y-55143395D01*
X84712536Y-55046130D01*
X84738799Y-54949820D01*
X84783818Y-54861094D01*
X84844773Y-54786019D01*
X84919584Y-54726241D01*
X85006167Y-54683409D01*
X85102443Y-54659171D01*
X85206328Y-54655176D01*
X85283962Y-54665451D01*
G37*
X82818111Y-55594633D02*
X82913667Y-55612123D01*
X83077958Y-55657164D01*
X83231989Y-55720256D01*
X83377909Y-55802515D01*
X83517866Y-55905058D01*
X83654008Y-56028999D01*
X83697873Y-56074261D01*
X83810158Y-56206465D01*
X83903372Y-56344432D01*
X83980119Y-56492350D01*
X84043003Y-56654403D01*
X84046820Y-56665991D01*
X84096907Y-56851992D01*
X84130299Y-57048120D01*
X84146984Y-57250168D01*
X84146951Y-57453925D01*
X84130191Y-57655181D01*
X84096692Y-57849728D01*
X84046444Y-58033356D01*
X84002590Y-58150653D01*
X83924748Y-58313551D01*
X83831228Y-58467466D01*
X83724222Y-58609271D01*
X83605919Y-58735839D01*
X83478511Y-58844041D01*
X83401006Y-58896720D01*
X83274125Y-58966350D01*
X83136643Y-59025068D01*
X82995115Y-59070187D01*
X82856102Y-59099022D01*
X82841997Y-59100706D01*
X82798553Y-59104034D01*
X82741123Y-59106875D01*
X82675522Y-59108973D01*
X82607567Y-59110068D01*
X82480779Y-59107740D01*
X82333073Y-59094736D01*
X82195180Y-59069733D01*
X82061414Y-59031918D01*
X82037962Y-59023489D01*
X81990012Y-59004008D01*
X81933540Y-58979073D01*
X81871779Y-58950322D01*
X81807963Y-58919390D01*
X81745326Y-58887915D01*
X81687103Y-58857534D01*
X81636526Y-58829883D01*
X81596833Y-58806599D01*
X81571254Y-58789319D01*
X81563025Y-58779679D01*
X81564476Y-58776584D01*
X81575650Y-58756679D01*
X81596534Y-58721020D01*
X81625665Y-58672059D01*
X81661581Y-58612246D01*
X81702820Y-58544033D01*
X81747917Y-58469871D01*
X81929185Y-58172608D01*
X81975715Y-58217139D01*
X82067123Y-58295465D01*
X82180734Y-58370039D01*
X82298522Y-58424074D01*
X82418958Y-58456890D01*
X82540517Y-58467810D01*
X82581985Y-58466468D01*
X82699480Y-58448212D01*
X82809489Y-58409217D01*
X82910830Y-58350270D01*
X83002322Y-58272157D01*
X83082780Y-58175664D01*
X83151027Y-58061578D01*
X83167308Y-58027324D01*
X83213382Y-57903840D01*
X83248506Y-57765518D01*
X83272597Y-57616160D01*
X83285573Y-57459572D01*
X83287349Y-57299556D01*
X83277843Y-57139913D01*
X83256972Y-56984450D01*
X83224652Y-56836966D01*
X83180799Y-56701268D01*
X83143382Y-56614676D01*
X83078585Y-56501288D01*
X83003172Y-56407670D01*
X82916818Y-56333559D01*
X82819195Y-56278694D01*
X82709977Y-56242812D01*
X82588839Y-56225651D01*
X82519438Y-56224480D01*
X82396568Y-56238741D01*
X82281064Y-56273841D01*
X82174353Y-56329282D01*
X82077864Y-56404564D01*
X82062121Y-56419040D01*
X82031549Y-56445562D01*
X82009209Y-56462738D01*
X81999091Y-56467387D01*
X81997106Y-56465197D01*
X81982641Y-56446321D01*
X81958800Y-56412997D01*
X81927429Y-56367980D01*
X81890374Y-56314025D01*
X81849483Y-56253885D01*
X81806602Y-56190318D01*
X81763578Y-56126076D01*
X81722257Y-56063915D01*
X81684487Y-56006591D01*
X81652112Y-55956857D01*
X81626983Y-55917468D01*
X81610942Y-55891180D01*
X81605839Y-55880747D01*
X81610450Y-55876541D01*
X81629667Y-55871533D01*
X81639238Y-55868986D01*
X81667208Y-55857849D01*
X81708849Y-55839402D01*
X81760395Y-55815325D01*
X81818090Y-55787299D01*
X81829357Y-55781754D01*
X82007086Y-55702489D01*
X82176890Y-55642985D01*
X82340830Y-55602845D01*
X82500971Y-55581671D01*
X82659377Y-55579066D01*
X82818111Y-55594633D01*
G36*
X82818111Y-55594633D02*
G01*
X82913667Y-55612123D01*
X83077958Y-55657164D01*
X83231989Y-55720256D01*
X83377909Y-55802515D01*
X83517866Y-55905058D01*
X83654008Y-56028999D01*
X83697873Y-56074261D01*
X83810158Y-56206465D01*
X83903372Y-56344432D01*
X83980119Y-56492350D01*
X84043003Y-56654403D01*
X84046820Y-56665991D01*
X84096907Y-56851992D01*
X84130299Y-57048120D01*
X84146984Y-57250168D01*
X84146951Y-57453925D01*
X84130191Y-57655181D01*
X84096692Y-57849728D01*
X84046444Y-58033356D01*
X84002590Y-58150653D01*
X83924748Y-58313551D01*
X83831228Y-58467466D01*
X83724222Y-58609271D01*
X83605919Y-58735839D01*
X83478511Y-58844041D01*
X83401006Y-58896720D01*
X83274125Y-58966350D01*
X83136643Y-59025068D01*
X82995115Y-59070187D01*
X82856102Y-59099022D01*
X82841997Y-59100706D01*
X82798553Y-59104034D01*
X82741123Y-59106875D01*
X82675522Y-59108973D01*
X82607567Y-59110068D01*
X82480779Y-59107740D01*
X82333073Y-59094736D01*
X82195180Y-59069733D01*
X82061414Y-59031918D01*
X82037962Y-59023489D01*
X81990012Y-59004008D01*
X81933540Y-58979073D01*
X81871779Y-58950322D01*
X81807963Y-58919390D01*
X81745326Y-58887915D01*
X81687103Y-58857534D01*
X81636526Y-58829883D01*
X81596833Y-58806599D01*
X81571254Y-58789319D01*
X81563025Y-58779679D01*
X81564476Y-58776584D01*
X81575650Y-58756679D01*
X81596534Y-58721020D01*
X81625665Y-58672059D01*
X81661581Y-58612246D01*
X81702820Y-58544033D01*
X81747917Y-58469871D01*
X81929185Y-58172608D01*
X81975715Y-58217139D01*
X82067123Y-58295465D01*
X82180734Y-58370039D01*
X82298522Y-58424074D01*
X82418958Y-58456890D01*
X82540517Y-58467810D01*
X82581985Y-58466468D01*
X82699480Y-58448212D01*
X82809489Y-58409217D01*
X82910830Y-58350270D01*
X83002322Y-58272157D01*
X83082780Y-58175664D01*
X83151027Y-58061578D01*
X83167308Y-58027324D01*
X83213382Y-57903840D01*
X83248506Y-57765518D01*
X83272597Y-57616160D01*
X83285573Y-57459572D01*
X83287349Y-57299556D01*
X83277843Y-57139913D01*
X83256972Y-56984450D01*
X83224652Y-56836966D01*
X83180799Y-56701268D01*
X83143382Y-56614676D01*
X83078585Y-56501288D01*
X83003172Y-56407670D01*
X82916818Y-56333559D01*
X82819195Y-56278694D01*
X82709977Y-56242812D01*
X82588839Y-56225651D01*
X82519438Y-56224480D01*
X82396568Y-56238741D01*
X82281064Y-56273841D01*
X82174353Y-56329282D01*
X82077864Y-56404564D01*
X82062121Y-56419040D01*
X82031549Y-56445562D01*
X82009209Y-56462738D01*
X81999091Y-56467387D01*
X81997106Y-56465197D01*
X81982641Y-56446321D01*
X81958800Y-56412997D01*
X81927429Y-56367980D01*
X81890374Y-56314025D01*
X81849483Y-56253885D01*
X81806602Y-56190318D01*
X81763578Y-56126076D01*
X81722257Y-56063915D01*
X81684487Y-56006591D01*
X81652112Y-55956857D01*
X81626983Y-55917468D01*
X81610942Y-55891180D01*
X81605839Y-55880747D01*
X81610450Y-55876541D01*
X81629667Y-55871533D01*
X81639238Y-55868986D01*
X81667208Y-55857849D01*
X81708849Y-55839402D01*
X81760395Y-55815325D01*
X81818090Y-55787299D01*
X81829357Y-55781754D01*
X82007086Y-55702489D01*
X82176890Y-55642985D01*
X82340830Y-55602845D01*
X82500971Y-55581671D01*
X82659377Y-55579066D01*
X82818111Y-55594633D01*
G37*
X79015394Y-57875311D02*
X79014668Y-57952758D01*
X79006089Y-58104194D01*
X78987233Y-58240883D01*
X78957237Y-58366876D01*
X78915236Y-58486225D01*
X78860369Y-58602981D01*
X78793567Y-58713779D01*
X78702763Y-58827339D01*
X78599108Y-58922811D01*
X78483287Y-58999674D01*
X78355986Y-59057397D01*
X78217889Y-59095458D01*
X78180193Y-59101266D01*
X78101152Y-59106996D01*
X78013029Y-59107183D01*
X77923636Y-59102139D01*
X77840784Y-59092178D01*
X77772287Y-59077612D01*
X77741435Y-59067964D01*
X77664131Y-59037723D01*
X77587079Y-59000217D01*
X77517600Y-58959214D01*
X77463015Y-58918479D01*
X77440316Y-58899105D01*
X77417601Y-58881262D01*
X77406179Y-58874378D01*
X77404937Y-58876024D01*
X77402128Y-58893805D01*
X77400176Y-58926970D01*
X77399445Y-58970333D01*
X77399445Y-59066289D01*
X76541296Y-59066289D01*
X76575561Y-59005574D01*
X76580755Y-58996468D01*
X76589115Y-58981849D01*
X76596688Y-58967773D01*
X76603512Y-58953140D01*
X76609627Y-58936849D01*
X76615073Y-58917798D01*
X76619887Y-58894886D01*
X76624108Y-58867013D01*
X76627777Y-58833078D01*
X76630931Y-58791979D01*
X76633611Y-58742616D01*
X76635854Y-58683886D01*
X76637699Y-58614690D01*
X76639187Y-58533926D01*
X76640355Y-58440494D01*
X76641078Y-58353321D01*
X77444600Y-58353321D01*
X77515156Y-58399689D01*
X77555817Y-58423391D01*
X77609946Y-58449239D01*
X77659089Y-58467429D01*
X77722565Y-58483151D01*
X77818730Y-58494141D01*
X77903300Y-58485965D01*
X77976619Y-58458405D01*
X78039037Y-58411242D01*
X78090902Y-58344258D01*
X78132560Y-58257233D01*
X78164362Y-58149950D01*
X78166945Y-58137609D01*
X78175400Y-58076372D01*
X78181063Y-57999292D01*
X78183976Y-57911602D01*
X78184183Y-57818534D01*
X78181730Y-57725320D01*
X78176661Y-57637194D01*
X78169019Y-57559388D01*
X78158848Y-57497132D01*
X78157567Y-57491266D01*
X78128526Y-57380721D01*
X78094011Y-57290175D01*
X78052856Y-57217553D01*
X78003899Y-57160781D01*
X77945973Y-57117784D01*
X77914020Y-57102215D01*
X77841184Y-57083322D01*
X77759843Y-57080065D01*
X77674719Y-57091989D01*
X77590533Y-57118640D01*
X77512008Y-57159563D01*
X77444600Y-57203130D01*
X77444600Y-58353321D01*
X76641078Y-58353321D01*
X76641244Y-58333292D01*
X76641891Y-58211221D01*
X76642336Y-58073176D01*
X76642617Y-57918059D01*
X76642775Y-57744768D01*
X76642848Y-57552203D01*
X76642874Y-57339262D01*
X76642893Y-57104845D01*
X76643090Y-55419978D01*
X77548417Y-55419978D01*
X77523985Y-55456667D01*
X77517719Y-55466247D01*
X77491608Y-55512581D01*
X77473869Y-55559702D01*
X77462308Y-55614851D01*
X77454731Y-55685268D01*
X77454239Y-55692250D01*
X77452462Y-55730241D01*
X77450844Y-55784175D01*
X77449399Y-55851303D01*
X77448140Y-55928871D01*
X77447081Y-56014128D01*
X77446229Y-56104324D01*
X77445603Y-56196707D01*
X77445212Y-56288525D01*
X77445070Y-56377027D01*
X77445190Y-56459462D01*
X77445583Y-56533079D01*
X77446263Y-56595126D01*
X77447241Y-56642851D01*
X77448532Y-56673504D01*
X77450147Y-56684333D01*
X77458357Y-56679933D01*
X77480047Y-56664962D01*
X77509414Y-56643048D01*
X77558279Y-56608836D01*
X77646524Y-56562314D01*
X77745316Y-56528646D01*
X77857910Y-56506831D01*
X77987564Y-56495865D01*
X78080070Y-56494819D01*
X78201411Y-56504614D01*
X78311499Y-56528774D01*
X78414789Y-56568385D01*
X78515738Y-56624532D01*
X78560903Y-56655483D01*
X78666311Y-56746715D01*
X78757939Y-56855706D01*
X78835732Y-56982326D01*
X78899641Y-57126445D01*
X78949614Y-57287932D01*
X78985599Y-57466659D01*
X79007543Y-57662495D01*
X79013300Y-57818534D01*
X79015394Y-57875311D01*
G36*
X79015394Y-57875311D02*
G01*
X79014668Y-57952758D01*
X79006089Y-58104194D01*
X78987233Y-58240883D01*
X78957237Y-58366876D01*
X78915236Y-58486225D01*
X78860369Y-58602981D01*
X78793567Y-58713779D01*
X78702763Y-58827339D01*
X78599108Y-58922811D01*
X78483287Y-58999674D01*
X78355986Y-59057397D01*
X78217889Y-59095458D01*
X78180193Y-59101266D01*
X78101152Y-59106996D01*
X78013029Y-59107183D01*
X77923636Y-59102139D01*
X77840784Y-59092178D01*
X77772287Y-59077612D01*
X77741435Y-59067964D01*
X77664131Y-59037723D01*
X77587079Y-59000217D01*
X77517600Y-58959214D01*
X77463015Y-58918479D01*
X77440316Y-58899105D01*
X77417601Y-58881262D01*
X77406179Y-58874378D01*
X77404937Y-58876024D01*
X77402128Y-58893805D01*
X77400176Y-58926970D01*
X77399445Y-58970333D01*
X77399445Y-59066289D01*
X76541296Y-59066289D01*
X76575561Y-59005574D01*
X76580755Y-58996468D01*
X76589115Y-58981849D01*
X76596688Y-58967773D01*
X76603512Y-58953140D01*
X76609627Y-58936849D01*
X76615073Y-58917798D01*
X76619887Y-58894886D01*
X76624108Y-58867013D01*
X76627777Y-58833078D01*
X76630931Y-58791979D01*
X76633611Y-58742616D01*
X76635854Y-58683886D01*
X76637699Y-58614690D01*
X76639187Y-58533926D01*
X76640355Y-58440494D01*
X76641078Y-58353321D01*
X77444600Y-58353321D01*
X77515156Y-58399689D01*
X77555817Y-58423391D01*
X77609946Y-58449239D01*
X77659089Y-58467429D01*
X77722565Y-58483151D01*
X77818730Y-58494141D01*
X77903300Y-58485965D01*
X77976619Y-58458405D01*
X78039037Y-58411242D01*
X78090902Y-58344258D01*
X78132560Y-58257233D01*
X78164362Y-58149950D01*
X78166945Y-58137609D01*
X78175400Y-58076372D01*
X78181063Y-57999292D01*
X78183976Y-57911602D01*
X78184183Y-57818534D01*
X78181730Y-57725320D01*
X78176661Y-57637194D01*
X78169019Y-57559388D01*
X78158848Y-57497132D01*
X78157567Y-57491266D01*
X78128526Y-57380721D01*
X78094011Y-57290175D01*
X78052856Y-57217553D01*
X78003899Y-57160781D01*
X77945973Y-57117784D01*
X77914020Y-57102215D01*
X77841184Y-57083322D01*
X77759843Y-57080065D01*
X77674719Y-57091989D01*
X77590533Y-57118640D01*
X77512008Y-57159563D01*
X77444600Y-57203130D01*
X77444600Y-58353321D01*
X76641078Y-58353321D01*
X76641244Y-58333292D01*
X76641891Y-58211221D01*
X76642336Y-58073176D01*
X76642617Y-57918059D01*
X76642775Y-57744768D01*
X76642848Y-57552203D01*
X76642874Y-57339262D01*
X76642893Y-57104845D01*
X76643090Y-55419978D01*
X77548417Y-55419978D01*
X77523985Y-55456667D01*
X77517719Y-55466247D01*
X77491608Y-55512581D01*
X77473869Y-55559702D01*
X77462308Y-55614851D01*
X77454731Y-55685268D01*
X77454239Y-55692250D01*
X77452462Y-55730241D01*
X77450844Y-55784175D01*
X77449399Y-55851303D01*
X77448140Y-55928871D01*
X77447081Y-56014128D01*
X77446229Y-56104324D01*
X77445603Y-56196707D01*
X77445212Y-56288525D01*
X77445070Y-56377027D01*
X77445190Y-56459462D01*
X77445583Y-56533079D01*
X77446263Y-56595126D01*
X77447241Y-56642851D01*
X77448532Y-56673504D01*
X77450147Y-56684333D01*
X77458357Y-56679933D01*
X77480047Y-56664962D01*
X77509414Y-56643048D01*
X77558279Y-56608836D01*
X77646524Y-56562314D01*
X77745316Y-56528646D01*
X77857910Y-56506831D01*
X77987564Y-56495865D01*
X78080070Y-56494819D01*
X78201411Y-56504614D01*
X78311499Y-56528774D01*
X78414789Y-56568385D01*
X78515738Y-56624532D01*
X78560903Y-56655483D01*
X78666311Y-56746715D01*
X78757939Y-56855706D01*
X78835732Y-56982326D01*
X78899641Y-57126445D01*
X78949614Y-57287932D01*
X78985599Y-57466659D01*
X79007543Y-57662495D01*
X79013300Y-57818534D01*
X79015394Y-57875311D01*
G37*
X81557155Y-58276067D02*
X81556662Y-58309963D01*
X81553032Y-58384803D01*
X81545422Y-58447001D01*
X81533088Y-58503584D01*
X81488713Y-58629676D01*
X81425800Y-58744279D01*
X81345638Y-58845168D01*
X81249139Y-58931524D01*
X81137222Y-59002532D01*
X81010797Y-59057376D01*
X80870778Y-59095238D01*
X80834549Y-59100951D01*
X80755555Y-59106913D01*
X80667241Y-59107246D01*
X80577475Y-59102259D01*
X80494122Y-59092266D01*
X80425051Y-59077578D01*
X80338587Y-59047349D01*
X80228686Y-58992657D01*
X80131356Y-58925143D01*
X80069267Y-58874156D01*
X80066005Y-58970222D01*
X80062743Y-59066289D01*
X79639850Y-59066289D01*
X79628943Y-59066286D01*
X79534456Y-59065980D01*
X79447730Y-59065216D01*
X79371237Y-59064051D01*
X79307443Y-59062542D01*
X79258818Y-59060747D01*
X79227833Y-59058721D01*
X79216956Y-59056522D01*
X79216978Y-59056063D01*
X79224014Y-59040510D01*
X79239834Y-59017672D01*
X79244134Y-59012237D01*
X79255177Y-58998206D01*
X79264711Y-58984786D01*
X79272861Y-58970322D01*
X79279752Y-58953156D01*
X79285511Y-58931634D01*
X79290262Y-58904097D01*
X79294131Y-58868892D01*
X79297244Y-58824360D01*
X79299725Y-58768846D01*
X79301700Y-58700693D01*
X79303294Y-58618245D01*
X79304634Y-58519846D01*
X79305844Y-58403839D01*
X79306296Y-58353062D01*
X80108778Y-58353062D01*
X80153448Y-58409573D01*
X80166185Y-58424812D01*
X80213004Y-58467443D01*
X80273654Y-58503272D01*
X80284297Y-58508450D01*
X80323076Y-58525345D01*
X80358091Y-58535509D01*
X80398122Y-58540925D01*
X80451941Y-58543578D01*
X80470048Y-58543983D01*
X80545411Y-58541140D01*
X80606143Y-58529220D01*
X80657852Y-58506637D01*
X80706146Y-58471811D01*
X80711203Y-58467398D01*
X80759672Y-58411760D01*
X80787859Y-58347933D01*
X80797152Y-58272882D01*
X80789920Y-58201293D01*
X80765195Y-58138245D01*
X80720649Y-58080358D01*
X80665719Y-58033409D01*
X80593294Y-57993561D01*
X80506740Y-57965863D01*
X80404070Y-57949696D01*
X80283294Y-57944442D01*
X80274407Y-57944457D01*
X80219059Y-57945255D01*
X80172136Y-57947088D01*
X80138353Y-57949711D01*
X80122428Y-57952874D01*
X80118343Y-57959341D01*
X80113972Y-57981474D01*
X80111004Y-58020588D01*
X80109314Y-58078539D01*
X80108778Y-58157186D01*
X80108778Y-58353062D01*
X79306296Y-58353062D01*
X79307049Y-58268568D01*
X79308375Y-58112378D01*
X79309628Y-57969612D01*
X79311051Y-57824542D01*
X79312576Y-57698627D01*
X79314333Y-57590036D01*
X79316451Y-57496934D01*
X79319060Y-57417491D01*
X79322290Y-57349873D01*
X79326269Y-57292249D01*
X79331128Y-57242785D01*
X79336997Y-57199650D01*
X79344004Y-57161010D01*
X79352280Y-57125035D01*
X79361954Y-57089889D01*
X79373156Y-57053742D01*
X79386016Y-57014761D01*
X79401490Y-56971691D01*
X79444394Y-56879471D01*
X79498135Y-56799699D01*
X79566975Y-56725565D01*
X79644585Y-56662005D01*
X79749161Y-56600325D01*
X79868644Y-56552802D01*
X80003907Y-56519167D01*
X80155826Y-56499152D01*
X80325272Y-56492489D01*
X80383290Y-56492887D01*
X80448798Y-56494935D01*
X80510093Y-56499304D01*
X80571497Y-56506635D01*
X80637332Y-56517569D01*
X80711920Y-56532747D01*
X80799584Y-56552809D01*
X80904645Y-56578397D01*
X80933205Y-56585420D01*
X81008454Y-56603376D01*
X81078788Y-56619420D01*
X81139966Y-56632628D01*
X81187754Y-56642074D01*
X81217911Y-56646831D01*
X81246183Y-56650510D01*
X81272460Y-56655787D01*
X81282459Y-56660542D01*
X81279352Y-56669381D01*
X81268594Y-56696671D01*
X81251264Y-56739506D01*
X81228526Y-56795025D01*
X81201547Y-56860372D01*
X81171490Y-56932689D01*
X81164893Y-56948479D01*
X81126307Y-57039084D01*
X81095168Y-57108817D01*
X81071317Y-57158005D01*
X81054598Y-57186974D01*
X81044853Y-57196052D01*
X81037166Y-57194005D01*
X81010815Y-57184360D01*
X80972382Y-57168790D01*
X80927222Y-57149416D01*
X80832693Y-57111414D01*
X80695880Y-57070380D01*
X80554688Y-57045212D01*
X80516714Y-57041211D01*
X80413459Y-57039047D01*
X80326352Y-57052222D01*
X80254529Y-57081356D01*
X80197131Y-57127066D01*
X80153296Y-57189972D01*
X80122162Y-57270692D01*
X80102870Y-57369845D01*
X80095450Y-57428824D01*
X80257336Y-57422045D01*
X80383895Y-57420413D01*
X80535351Y-57426794D01*
X80683796Y-57441377D01*
X80819979Y-57463482D01*
X80884646Y-57478421D01*
X81016890Y-57521341D01*
X81139162Y-57577940D01*
X81249085Y-57646617D01*
X81344283Y-57725770D01*
X81422381Y-57813796D01*
X81480999Y-57909094D01*
X81504995Y-57961464D01*
X81530632Y-58032190D01*
X81546878Y-58103411D01*
X81555222Y-58182312D01*
X81557090Y-58272882D01*
X81557155Y-58276067D01*
G36*
X81557155Y-58276067D02*
G01*
X81556662Y-58309963D01*
X81553032Y-58384803D01*
X81545422Y-58447001D01*
X81533088Y-58503584D01*
X81488713Y-58629676D01*
X81425800Y-58744279D01*
X81345638Y-58845168D01*
X81249139Y-58931524D01*
X81137222Y-59002532D01*
X81010797Y-59057376D01*
X80870778Y-59095238D01*
X80834549Y-59100951D01*
X80755555Y-59106913D01*
X80667241Y-59107246D01*
X80577475Y-59102259D01*
X80494122Y-59092266D01*
X80425051Y-59077578D01*
X80338587Y-59047349D01*
X80228686Y-58992657D01*
X80131356Y-58925143D01*
X80069267Y-58874156D01*
X80066005Y-58970222D01*
X80062743Y-59066289D01*
X79639850Y-59066289D01*
X79628943Y-59066286D01*
X79534456Y-59065980D01*
X79447730Y-59065216D01*
X79371237Y-59064051D01*
X79307443Y-59062542D01*
X79258818Y-59060747D01*
X79227833Y-59058721D01*
X79216956Y-59056522D01*
X79216978Y-59056063D01*
X79224014Y-59040510D01*
X79239834Y-59017672D01*
X79244134Y-59012237D01*
X79255177Y-58998206D01*
X79264711Y-58984786D01*
X79272861Y-58970322D01*
X79279752Y-58953156D01*
X79285511Y-58931634D01*
X79290262Y-58904097D01*
X79294131Y-58868892D01*
X79297244Y-58824360D01*
X79299725Y-58768846D01*
X79301700Y-58700693D01*
X79303294Y-58618245D01*
X79304634Y-58519846D01*
X79305844Y-58403839D01*
X79306296Y-58353062D01*
X80108778Y-58353062D01*
X80153448Y-58409573D01*
X80166185Y-58424812D01*
X80213004Y-58467443D01*
X80273654Y-58503272D01*
X80284297Y-58508450D01*
X80323076Y-58525345D01*
X80358091Y-58535509D01*
X80398122Y-58540925D01*
X80451941Y-58543578D01*
X80470048Y-58543983D01*
X80545411Y-58541140D01*
X80606143Y-58529220D01*
X80657852Y-58506637D01*
X80706146Y-58471811D01*
X80711203Y-58467398D01*
X80759672Y-58411760D01*
X80787859Y-58347933D01*
X80797152Y-58272882D01*
X80789920Y-58201293D01*
X80765195Y-58138245D01*
X80720649Y-58080358D01*
X80665719Y-58033409D01*
X80593294Y-57993561D01*
X80506740Y-57965863D01*
X80404070Y-57949696D01*
X80283294Y-57944442D01*
X80274407Y-57944457D01*
X80219059Y-57945255D01*
X80172136Y-57947088D01*
X80138353Y-57949711D01*
X80122428Y-57952874D01*
X80118343Y-57959341D01*
X80113972Y-57981474D01*
X80111004Y-58020588D01*
X80109314Y-58078539D01*
X80108778Y-58157186D01*
X80108778Y-58353062D01*
X79306296Y-58353062D01*
X79307049Y-58268568D01*
X79308375Y-58112378D01*
X79309628Y-57969612D01*
X79311051Y-57824542D01*
X79312576Y-57698627D01*
X79314333Y-57590036D01*
X79316451Y-57496934D01*
X79319060Y-57417491D01*
X79322290Y-57349873D01*
X79326269Y-57292249D01*
X79331128Y-57242785D01*
X79336997Y-57199650D01*
X79344004Y-57161010D01*
X79352280Y-57125035D01*
X79361954Y-57089889D01*
X79373156Y-57053742D01*
X79386016Y-57014761D01*
X79401490Y-56971691D01*
X79444394Y-56879471D01*
X79498135Y-56799699D01*
X79566975Y-56725565D01*
X79644585Y-56662005D01*
X79749161Y-56600325D01*
X79868644Y-56552802D01*
X80003907Y-56519167D01*
X80155826Y-56499152D01*
X80325272Y-56492489D01*
X80383290Y-56492887D01*
X80448798Y-56494935D01*
X80510093Y-56499304D01*
X80571497Y-56506635D01*
X80637332Y-56517569D01*
X80711920Y-56532747D01*
X80799584Y-56552809D01*
X80904645Y-56578397D01*
X80933205Y-56585420D01*
X81008454Y-56603376D01*
X81078788Y-56619420D01*
X81139966Y-56632628D01*
X81187754Y-56642074D01*
X81217911Y-56646831D01*
X81246183Y-56650510D01*
X81272460Y-56655787D01*
X81282459Y-56660542D01*
X81279352Y-56669381D01*
X81268594Y-56696671D01*
X81251264Y-56739506D01*
X81228526Y-56795025D01*
X81201547Y-56860372D01*
X81171490Y-56932689D01*
X81164893Y-56948479D01*
X81126307Y-57039084D01*
X81095168Y-57108817D01*
X81071317Y-57158005D01*
X81054598Y-57186974D01*
X81044853Y-57196052D01*
X81037166Y-57194005D01*
X81010815Y-57184360D01*
X80972382Y-57168790D01*
X80927222Y-57149416D01*
X80832693Y-57111414D01*
X80695880Y-57070380D01*
X80554688Y-57045212D01*
X80516714Y-57041211D01*
X80413459Y-57039047D01*
X80326352Y-57052222D01*
X80254529Y-57081356D01*
X80197131Y-57127066D01*
X80153296Y-57189972D01*
X80122162Y-57270692D01*
X80102870Y-57369845D01*
X80095450Y-57428824D01*
X80257336Y-57422045D01*
X80383895Y-57420413D01*
X80535351Y-57426794D01*
X80683796Y-57441377D01*
X80819979Y-57463482D01*
X80884646Y-57478421D01*
X81016890Y-57521341D01*
X81139162Y-57577940D01*
X81249085Y-57646617D01*
X81344283Y-57725770D01*
X81422381Y-57813796D01*
X81480999Y-57909094D01*
X81504995Y-57961464D01*
X81530632Y-58032190D01*
X81546878Y-58103411D01*
X81555222Y-58182312D01*
X81557090Y-58272882D01*
X81557155Y-58276067D01*
G37*
X89105014Y-55744392D02*
X89105459Y-55875611D01*
X89105762Y-56022816D01*
X89105948Y-56186949D01*
X89106042Y-56368952D01*
X89106071Y-56569765D01*
X89106061Y-56790332D01*
X89106036Y-57031592D01*
X89106022Y-57294488D01*
X89106022Y-57336640D01*
X89106045Y-57597268D01*
X89106085Y-57836396D01*
X89106108Y-58054960D01*
X89106087Y-58253895D01*
X89105993Y-58434135D01*
X89105795Y-58596615D01*
X89105463Y-58742270D01*
X89104969Y-58872034D01*
X89104283Y-58986843D01*
X89103376Y-59087631D01*
X89102217Y-59175330D01*
X89100778Y-59250879D01*
X89099029Y-59315211D01*
X89096940Y-59369261D01*
X89094483Y-59413963D01*
X89091627Y-59450252D01*
X89088344Y-59479063D01*
X89084602Y-59501331D01*
X89080374Y-59517990D01*
X89075629Y-59529975D01*
X89070339Y-59538221D01*
X89064473Y-59543661D01*
X89058002Y-59547234D01*
X89050897Y-59549870D01*
X89043128Y-59552506D01*
X89034666Y-59556077D01*
X89030308Y-59557745D01*
X89021795Y-59559711D01*
X89009094Y-59561512D01*
X88991285Y-59563155D01*
X88967450Y-59564647D01*
X88936666Y-59565997D01*
X88898017Y-59567211D01*
X88850582Y-59568297D01*
X88793443Y-59569261D01*
X88725679Y-59570111D01*
X88646371Y-59570853D01*
X88554599Y-59571497D01*
X88449444Y-59572047D01*
X88329987Y-59572513D01*
X88195308Y-59572900D01*
X88044488Y-59573216D01*
X87876606Y-59573469D01*
X87690745Y-59573666D01*
X87485983Y-59573812D01*
X87261402Y-59573918D01*
X87016082Y-59573989D01*
X86749104Y-59574032D01*
X86710721Y-59574037D01*
X86445322Y-59574080D01*
X86201450Y-59574125D01*
X85978183Y-59574148D01*
X85774596Y-59574124D01*
X85589767Y-59574030D01*
X85422774Y-59573843D01*
X85272690Y-59573539D01*
X85138596Y-59573094D01*
X85019566Y-59572485D01*
X84914679Y-59571689D01*
X84823010Y-59570680D01*
X84743637Y-59569438D01*
X84675637Y-59567935D01*
X84618086Y-59566151D01*
X84570062Y-59564061D01*
X84530640Y-59561642D01*
X84498899Y-59558871D01*
X84473914Y-59555721D01*
X84454764Y-59552171D01*
X84440523Y-59548198D01*
X84430271Y-59543778D01*
X84423082Y-59538886D01*
X84418035Y-59533500D01*
X84414205Y-59527596D01*
X84410671Y-59521149D01*
X84406508Y-59514137D01*
X84405425Y-59512286D01*
X84403213Y-59506780D01*
X84401186Y-59498467D01*
X84399338Y-59486409D01*
X84397661Y-59469663D01*
X84396145Y-59447286D01*
X84394783Y-59418340D01*
X84393567Y-59381880D01*
X84392489Y-59336967D01*
X84391540Y-59282657D01*
X84390712Y-59218010D01*
X84389997Y-59142084D01*
X84389387Y-59053938D01*
X84389342Y-59045092D01*
X84680778Y-59045092D01*
X84684660Y-59046365D01*
X84707920Y-59048391D01*
X84750274Y-59050226D01*
X84809532Y-59051827D01*
X84883507Y-59053149D01*
X84970010Y-59054148D01*
X85066852Y-59054781D01*
X85171845Y-59055000D01*
X85870051Y-59055000D01*
X87024490Y-59055000D01*
X87023856Y-58978800D01*
X87024974Y-58936760D01*
X87030704Y-58900934D01*
X87043290Y-58863372D01*
X87064968Y-58815177D01*
X87068189Y-58808497D01*
X87093588Y-58758959D01*
X87120395Y-58710969D01*
X87143317Y-58674066D01*
X87147885Y-58667434D01*
X87169916Y-58636193D01*
X87202093Y-58591254D01*
X87242857Y-58534747D01*
X87290645Y-58468804D01*
X87343898Y-58395557D01*
X87401055Y-58317136D01*
X87460555Y-58235672D01*
X87520837Y-58153298D01*
X87580339Y-58072144D01*
X87637505Y-57994342D01*
X87690770Y-57922023D01*
X87738574Y-57857318D01*
X87779357Y-57802359D01*
X87811558Y-57759276D01*
X87833616Y-57730202D01*
X87843971Y-57717267D01*
X87848444Y-57712951D01*
X87852636Y-57710912D01*
X87856043Y-57713526D01*
X87858725Y-57722586D01*
X87860741Y-57739885D01*
X87862148Y-57767214D01*
X87863005Y-57806365D01*
X87863370Y-57859133D01*
X87863303Y-57927307D01*
X87862860Y-58012682D01*
X87862102Y-58117049D01*
X87861085Y-58242200D01*
X87860708Y-58286900D01*
X87859570Y-58407995D01*
X87858372Y-58509288D01*
X87857036Y-58592862D01*
X87855477Y-58660804D01*
X87853615Y-58715200D01*
X87851366Y-58758132D01*
X87848648Y-58791689D01*
X87845379Y-58817955D01*
X87841478Y-58839016D01*
X87836861Y-58856958D01*
X87828593Y-58883370D01*
X87804982Y-58945372D01*
X87779085Y-58998173D01*
X87753935Y-59035245D01*
X87752738Y-59036675D01*
X87750568Y-59041024D01*
X87752728Y-59044626D01*
X87761043Y-59047551D01*
X87777339Y-59049869D01*
X87803442Y-59051651D01*
X87841171Y-59052967D01*
X87892356Y-59053885D01*
X87958820Y-59054478D01*
X88042387Y-59054814D01*
X88144883Y-59054965D01*
X88268132Y-59055000D01*
X88799696Y-59055000D01*
X88760923Y-58997383D01*
X88754832Y-58988493D01*
X88744377Y-58973669D01*
X88734979Y-58960022D01*
X88726583Y-58946365D01*
X88719133Y-58931511D01*
X88712573Y-58914270D01*
X88706846Y-58893455D01*
X88701895Y-58867880D01*
X88697666Y-58836355D01*
X88694101Y-58797693D01*
X88691144Y-58750707D01*
X88688740Y-58694208D01*
X88686831Y-58627009D01*
X88685362Y-58547922D01*
X88684277Y-58455760D01*
X88683518Y-58349334D01*
X88683030Y-58227457D01*
X88682758Y-58088941D01*
X88682643Y-57932599D01*
X88682631Y-57757242D01*
X88682665Y-57561682D01*
X88682689Y-57344733D01*
X88682680Y-57222113D01*
X88682643Y-57017047D01*
X88682627Y-56832716D01*
X88682689Y-56667934D01*
X88682884Y-56521516D01*
X88683270Y-56392274D01*
X88683905Y-56279022D01*
X88684844Y-56180575D01*
X88686145Y-56095744D01*
X88687864Y-56023344D01*
X88690059Y-55962189D01*
X88692785Y-55911092D01*
X88696101Y-55868866D01*
X88700062Y-55834327D01*
X88704725Y-55806286D01*
X88710147Y-55783558D01*
X88716386Y-55764956D01*
X88723497Y-55749293D01*
X88731538Y-55735384D01*
X88740566Y-55722041D01*
X88750636Y-55708079D01*
X88761807Y-55692311D01*
X88801597Y-55634468D01*
X87741714Y-55634467D01*
X87779711Y-55697566D01*
X87794393Y-55722605D01*
X87808931Y-55750186D01*
X87821027Y-55778300D01*
X87830932Y-55809151D01*
X87838894Y-55844944D01*
X87845161Y-55887883D01*
X87849982Y-55940175D01*
X87853606Y-56004019D01*
X87856282Y-56081625D01*
X87858257Y-56175194D01*
X87859782Y-56286933D01*
X87861104Y-56419045D01*
X87862013Y-56539034D01*
X87862420Y-56655663D01*
X87862167Y-56751131D01*
X87861257Y-56825156D01*
X87859693Y-56877455D01*
X87857479Y-56907749D01*
X87854620Y-56915756D01*
X87851561Y-56912458D01*
X87833406Y-56891008D01*
X87803675Y-56854489D01*
X87764039Y-56805042D01*
X87716170Y-56744807D01*
X87661743Y-56675928D01*
X87602427Y-56600543D01*
X87539895Y-56520796D01*
X87475821Y-56438828D01*
X87411875Y-56356780D01*
X87349731Y-56276794D01*
X87291061Y-56201011D01*
X87237537Y-56131573D01*
X87190830Y-56070621D01*
X87152614Y-56020296D01*
X87124561Y-55982740D01*
X87108343Y-55960095D01*
X87063035Y-55887813D01*
X87023062Y-55808063D01*
X87001530Y-55739788D01*
X86998227Y-55682444D01*
X87003516Y-55634467D01*
X85871756Y-55634717D01*
X85911267Y-55665321D01*
X85920648Y-55672689D01*
X85983583Y-55727038D01*
X86052397Y-55794859D01*
X86128996Y-55878116D01*
X86215288Y-55978778D01*
X86232453Y-55999447D01*
X86273233Y-56049009D01*
X86322988Y-56109926D01*
X86380355Y-56180498D01*
X86443969Y-56259024D01*
X86512469Y-56343805D01*
X86584490Y-56433137D01*
X86658670Y-56525322D01*
X86673917Y-56544302D01*
X86733646Y-56618660D01*
X86808053Y-56711448D01*
X86880531Y-56801988D01*
X86949714Y-56888578D01*
X87014241Y-56969518D01*
X87072747Y-57043106D01*
X87123870Y-57107644D01*
X87166247Y-57161429D01*
X87198515Y-57202762D01*
X87219310Y-57229942D01*
X87227269Y-57241267D01*
X87225511Y-57245371D01*
X87212630Y-57265934D01*
X87188285Y-57302161D01*
X87153647Y-57352424D01*
X87109886Y-57415092D01*
X87058175Y-57488536D01*
X86999684Y-57571127D01*
X86935584Y-57661236D01*
X86867045Y-57757231D01*
X86795243Y-57857485D01*
X86721344Y-57960368D01*
X86646522Y-58064250D01*
X86571945Y-58167501D01*
X86498787Y-58268492D01*
X86428219Y-58365594D01*
X86361411Y-58457177D01*
X86299535Y-58541611D01*
X86243761Y-58617267D01*
X86195262Y-58682516D01*
X86155207Y-58735728D01*
X86124769Y-58775273D01*
X86104344Y-58800626D01*
X86058298Y-58854895D01*
X86008013Y-58911375D01*
X85961215Y-58961268D01*
X85870051Y-59055000D01*
X85171845Y-59055000D01*
X85240756Y-59054949D01*
X85339007Y-59054691D01*
X85428430Y-59054237D01*
X85506733Y-59053610D01*
X85571623Y-59052835D01*
X85620811Y-59051935D01*
X85652004Y-59050934D01*
X85662911Y-59049857D01*
X85661722Y-59046637D01*
X85651576Y-59029052D01*
X85634440Y-59002758D01*
X85625940Y-58990291D01*
X85616729Y-58976222D01*
X85608633Y-58961952D01*
X85601585Y-58946079D01*
X85595517Y-58927209D01*
X85590361Y-58903941D01*
X85586051Y-58874878D01*
X85582519Y-58838622D01*
X85579697Y-58793770D01*
X85577518Y-58738928D01*
X85575914Y-58672697D01*
X85574818Y-58593677D01*
X85574164Y-58500471D01*
X85573884Y-58391679D01*
X85573909Y-58265903D01*
X85574172Y-58121745D01*
X85574606Y-57957807D01*
X85575145Y-57772689D01*
X85575679Y-57593831D01*
X85576205Y-57434974D01*
X85576750Y-57295916D01*
X85577345Y-57175265D01*
X85578019Y-57071628D01*
X85578803Y-56983611D01*
X85579726Y-56909823D01*
X85580820Y-56848869D01*
X85582112Y-56799357D01*
X85583635Y-56759893D01*
X85585419Y-56729084D01*
X85587492Y-56705538D01*
X85589885Y-56687860D01*
X85592630Y-56674659D01*
X85595756Y-56664540D01*
X85599291Y-56656111D01*
X85603190Y-56647975D01*
X85622837Y-56611144D01*
X85641625Y-56580992D01*
X85642672Y-56579508D01*
X85657002Y-56557260D01*
X85662911Y-56544302D01*
X85661904Y-56543849D01*
X85644705Y-56542403D01*
X85608056Y-56541080D01*
X85554362Y-56539916D01*
X85486031Y-56538947D01*
X85405464Y-56538211D01*
X85315071Y-56537742D01*
X85217254Y-56537578D01*
X84771595Y-56537578D01*
X84768520Y-57714445D01*
X84765445Y-58891312D01*
X84738807Y-58950222D01*
X84726885Y-58974783D01*
X84709646Y-59005034D01*
X84696474Y-59022160D01*
X84688476Y-59030191D01*
X84680778Y-59045092D01*
X84389342Y-59045092D01*
X84388874Y-58952629D01*
X84388450Y-58837217D01*
X84388106Y-58706760D01*
X84387834Y-58560316D01*
X84387627Y-58396944D01*
X84387476Y-58215701D01*
X84387372Y-58015648D01*
X84387308Y-57795841D01*
X84387276Y-57555339D01*
X84387267Y-57293202D01*
X84387267Y-55101631D01*
X84425649Y-55063249D01*
X84452755Y-55039511D01*
X84479653Y-55027711D01*
X84515960Y-55024867D01*
X84567889Y-55024867D01*
X84567889Y-55112806D01*
X84569827Y-55162702D01*
X84588599Y-55273123D01*
X84625617Y-55374587D01*
X84678768Y-55465752D01*
X84745946Y-55545273D01*
X84825038Y-55611805D01*
X84913934Y-55664006D01*
X85010525Y-55700530D01*
X85112700Y-55720035D01*
X85218350Y-55721173D01*
X85325365Y-55702605D01*
X85431632Y-55662984D01*
X85528619Y-55605116D01*
X85613693Y-55530285D01*
X85682415Y-55442215D01*
X85733318Y-55343216D01*
X85764935Y-55235593D01*
X85775799Y-55121654D01*
X85775800Y-55024867D01*
X87396153Y-55024867D01*
X87607297Y-55024880D01*
X87811420Y-55024930D01*
X87995086Y-55025030D01*
X88159391Y-55025192D01*
X88305429Y-55025429D01*
X88434294Y-55025753D01*
X88547083Y-55026175D01*
X88644888Y-55026709D01*
X88728804Y-55027368D01*
X88799928Y-55028161D01*
X88859350Y-55029104D01*
X88908168Y-55030208D01*
X88947477Y-55031484D01*
X88978369Y-55032947D01*
X89001941Y-55034607D01*
X89019286Y-55036478D01*
X89031499Y-55038572D01*
X89039675Y-55040900D01*
X89044908Y-55043476D01*
X89050904Y-55047045D01*
X89057679Y-55050578D01*
X89063878Y-55054088D01*
X89069526Y-55058518D01*
X89074647Y-55064807D01*
X89079269Y-55073901D01*
X89083415Y-55086739D01*
X89087113Y-55104262D01*
X89090387Y-55127413D01*
X89093263Y-55157134D01*
X89095767Y-55194365D01*
X89097924Y-55240049D01*
X89099760Y-55295127D01*
X89101300Y-55360541D01*
X89102570Y-55437233D01*
X89103595Y-55526144D01*
X89104401Y-55628217D01*
X89104434Y-55634468D01*
X89105014Y-55744392D01*
G36*
X89105014Y-55744392D02*
G01*
X89105459Y-55875611D01*
X89105762Y-56022816D01*
X89105948Y-56186949D01*
X89106042Y-56368952D01*
X89106071Y-56569765D01*
X89106061Y-56790332D01*
X89106036Y-57031592D01*
X89106022Y-57294488D01*
X89106022Y-57336640D01*
X89106045Y-57597268D01*
X89106085Y-57836396D01*
X89106108Y-58054960D01*
X89106087Y-58253895D01*
X89105993Y-58434135D01*
X89105795Y-58596615D01*
X89105463Y-58742270D01*
X89104969Y-58872034D01*
X89104283Y-58986843D01*
X89103376Y-59087631D01*
X89102217Y-59175330D01*
X89100778Y-59250879D01*
X89099029Y-59315211D01*
X89096940Y-59369261D01*
X89094483Y-59413963D01*
X89091627Y-59450252D01*
X89088344Y-59479063D01*
X89084602Y-59501331D01*
X89080374Y-59517990D01*
X89075629Y-59529975D01*
X89070339Y-59538221D01*
X89064473Y-59543661D01*
X89058002Y-59547234D01*
X89050897Y-59549870D01*
X89043128Y-59552506D01*
X89034666Y-59556077D01*
X89030308Y-59557745D01*
X89021795Y-59559711D01*
X89009094Y-59561512D01*
X88991285Y-59563155D01*
X88967450Y-59564647D01*
X88936666Y-59565997D01*
X88898017Y-59567211D01*
X88850582Y-59568297D01*
X88793443Y-59569261D01*
X88725679Y-59570111D01*
X88646371Y-59570853D01*
X88554599Y-59571497D01*
X88449444Y-59572047D01*
X88329987Y-59572513D01*
X88195308Y-59572900D01*
X88044488Y-59573216D01*
X87876606Y-59573469D01*
X87690745Y-59573666D01*
X87485983Y-59573812D01*
X87261402Y-59573918D01*
X87016082Y-59573989D01*
X86749104Y-59574032D01*
X86710721Y-59574037D01*
X86445322Y-59574080D01*
X86201450Y-59574125D01*
X85978183Y-59574148D01*
X85774596Y-59574124D01*
X85589767Y-59574030D01*
X85422774Y-59573843D01*
X85272690Y-59573539D01*
X85138596Y-59573094D01*
X85019566Y-59572485D01*
X84914679Y-59571689D01*
X84823010Y-59570680D01*
X84743637Y-59569438D01*
X84675637Y-59567935D01*
X84618086Y-59566151D01*
X84570062Y-59564061D01*
X84530640Y-59561642D01*
X84498899Y-59558871D01*
X84473914Y-59555721D01*
X84454764Y-59552171D01*
X84440523Y-59548198D01*
X84430271Y-59543778D01*
X84423082Y-59538886D01*
X84418035Y-59533500D01*
X84414205Y-59527596D01*
X84410671Y-59521149D01*
X84406508Y-59514137D01*
X84405425Y-59512286D01*
X84403213Y-59506780D01*
X84401186Y-59498467D01*
X84399338Y-59486409D01*
X84397661Y-59469663D01*
X84396145Y-59447286D01*
X84394783Y-59418340D01*
X84393567Y-59381880D01*
X84392489Y-59336967D01*
X84391540Y-59282657D01*
X84390712Y-59218010D01*
X84389997Y-59142084D01*
X84389387Y-59053938D01*
X84389342Y-59045092D01*
X84680778Y-59045092D01*
X84684660Y-59046365D01*
X84707920Y-59048391D01*
X84750274Y-59050226D01*
X84809532Y-59051827D01*
X84883507Y-59053149D01*
X84970010Y-59054148D01*
X85066852Y-59054781D01*
X85171845Y-59055000D01*
X85870051Y-59055000D01*
X87024490Y-59055000D01*
X87023856Y-58978800D01*
X87024974Y-58936760D01*
X87030704Y-58900934D01*
X87043290Y-58863372D01*
X87064968Y-58815177D01*
X87068189Y-58808497D01*
X87093588Y-58758959D01*
X87120395Y-58710969D01*
X87143317Y-58674066D01*
X87147885Y-58667434D01*
X87169916Y-58636193D01*
X87202093Y-58591254D01*
X87242857Y-58534747D01*
X87290645Y-58468804D01*
X87343898Y-58395557D01*
X87401055Y-58317136D01*
X87460555Y-58235672D01*
X87520837Y-58153298D01*
X87580339Y-58072144D01*
X87637505Y-57994342D01*
X87690770Y-57922023D01*
X87738574Y-57857318D01*
X87779357Y-57802359D01*
X87811558Y-57759276D01*
X87833616Y-57730202D01*
X87843971Y-57717267D01*
X87848444Y-57712951D01*
X87852636Y-57710912D01*
X87856043Y-57713526D01*
X87858725Y-57722586D01*
X87860741Y-57739885D01*
X87862148Y-57767214D01*
X87863005Y-57806365D01*
X87863370Y-57859133D01*
X87863303Y-57927307D01*
X87862860Y-58012682D01*
X87862102Y-58117049D01*
X87861085Y-58242200D01*
X87860708Y-58286900D01*
X87859570Y-58407995D01*
X87858372Y-58509288D01*
X87857036Y-58592862D01*
X87855477Y-58660804D01*
X87853615Y-58715200D01*
X87851366Y-58758132D01*
X87848648Y-58791689D01*
X87845379Y-58817955D01*
X87841478Y-58839016D01*
X87836861Y-58856958D01*
X87828593Y-58883370D01*
X87804982Y-58945372D01*
X87779085Y-58998173D01*
X87753935Y-59035245D01*
X87752738Y-59036675D01*
X87750568Y-59041024D01*
X87752728Y-59044626D01*
X87761043Y-59047551D01*
X87777339Y-59049869D01*
X87803442Y-59051651D01*
X87841171Y-59052967D01*
X87892356Y-59053885D01*
X87958820Y-59054478D01*
X88042387Y-59054814D01*
X88144883Y-59054965D01*
X88268132Y-59055000D01*
X88799696Y-59055000D01*
X88760923Y-58997383D01*
X88754832Y-58988493D01*
X88744377Y-58973669D01*
X88734979Y-58960022D01*
X88726583Y-58946365D01*
X88719133Y-58931511D01*
X88712573Y-58914270D01*
X88706846Y-58893455D01*
X88701895Y-58867880D01*
X88697666Y-58836355D01*
X88694101Y-58797693D01*
X88691144Y-58750707D01*
X88688740Y-58694208D01*
X88686831Y-58627009D01*
X88685362Y-58547922D01*
X88684277Y-58455760D01*
X88683518Y-58349334D01*
X88683030Y-58227457D01*
X88682758Y-58088941D01*
X88682643Y-57932599D01*
X88682631Y-57757242D01*
X88682665Y-57561682D01*
X88682689Y-57344733D01*
X88682680Y-57222113D01*
X88682643Y-57017047D01*
X88682627Y-56832716D01*
X88682689Y-56667934D01*
X88682884Y-56521516D01*
X88683270Y-56392274D01*
X88683905Y-56279022D01*
X88684844Y-56180575D01*
X88686145Y-56095744D01*
X88687864Y-56023344D01*
X88690059Y-55962189D01*
X88692785Y-55911092D01*
X88696101Y-55868866D01*
X88700062Y-55834327D01*
X88704725Y-55806286D01*
X88710147Y-55783558D01*
X88716386Y-55764956D01*
X88723497Y-55749293D01*
X88731538Y-55735384D01*
X88740566Y-55722041D01*
X88750636Y-55708079D01*
X88761807Y-55692311D01*
X88801597Y-55634468D01*
X87741714Y-55634467D01*
X87779711Y-55697566D01*
X87794393Y-55722605D01*
X87808931Y-55750186D01*
X87821027Y-55778300D01*
X87830932Y-55809151D01*
X87838894Y-55844944D01*
X87845161Y-55887883D01*
X87849982Y-55940175D01*
X87853606Y-56004019D01*
X87856282Y-56081625D01*
X87858257Y-56175194D01*
X87859782Y-56286933D01*
X87861104Y-56419045D01*
X87862013Y-56539034D01*
X87862420Y-56655663D01*
X87862167Y-56751131D01*
X87861257Y-56825156D01*
X87859693Y-56877455D01*
X87857479Y-56907749D01*
X87854620Y-56915756D01*
X87851561Y-56912458D01*
X87833406Y-56891008D01*
X87803675Y-56854489D01*
X87764039Y-56805042D01*
X87716170Y-56744807D01*
X87661743Y-56675928D01*
X87602427Y-56600543D01*
X87539895Y-56520796D01*
X87475821Y-56438828D01*
X87411875Y-56356780D01*
X87349731Y-56276794D01*
X87291061Y-56201011D01*
X87237537Y-56131573D01*
X87190830Y-56070621D01*
X87152614Y-56020296D01*
X87124561Y-55982740D01*
X87108343Y-55960095D01*
X87063035Y-55887813D01*
X87023062Y-55808063D01*
X87001530Y-55739788D01*
X86998227Y-55682444D01*
X87003516Y-55634467D01*
X85871756Y-55634717D01*
X85911267Y-55665321D01*
X85920648Y-55672689D01*
X85983583Y-55727038D01*
X86052397Y-55794859D01*
X86128996Y-55878116D01*
X86215288Y-55978778D01*
X86232453Y-55999447D01*
X86273233Y-56049009D01*
X86322988Y-56109926D01*
X86380355Y-56180498D01*
X86443969Y-56259024D01*
X86512469Y-56343805D01*
X86584490Y-56433137D01*
X86658670Y-56525322D01*
X86673917Y-56544302D01*
X86733646Y-56618660D01*
X86808053Y-56711448D01*
X86880531Y-56801988D01*
X86949714Y-56888578D01*
X87014241Y-56969518D01*
X87072747Y-57043106D01*
X87123870Y-57107644D01*
X87166247Y-57161429D01*
X87198515Y-57202762D01*
X87219310Y-57229942D01*
X87227269Y-57241267D01*
X87225511Y-57245371D01*
X87212630Y-57265934D01*
X87188285Y-57302161D01*
X87153647Y-57352424D01*
X87109886Y-57415092D01*
X87058175Y-57488536D01*
X86999684Y-57571127D01*
X86935584Y-57661236D01*
X86867045Y-57757231D01*
X86795243Y-57857485D01*
X86721344Y-57960368D01*
X86646522Y-58064250D01*
X86571945Y-58167501D01*
X86498787Y-58268492D01*
X86428219Y-58365594D01*
X86361411Y-58457177D01*
X86299535Y-58541611D01*
X86243761Y-58617267D01*
X86195262Y-58682516D01*
X86155207Y-58735728D01*
X86124769Y-58775273D01*
X86104344Y-58800626D01*
X86058298Y-58854895D01*
X86008013Y-58911375D01*
X85961215Y-58961268D01*
X85870051Y-59055000D01*
X85171845Y-59055000D01*
X85240756Y-59054949D01*
X85339007Y-59054691D01*
X85428430Y-59054237D01*
X85506733Y-59053610D01*
X85571623Y-59052835D01*
X85620811Y-59051935D01*
X85652004Y-59050934D01*
X85662911Y-59049857D01*
X85661722Y-59046637D01*
X85651576Y-59029052D01*
X85634440Y-59002758D01*
X85625940Y-58990291D01*
X85616729Y-58976222D01*
X85608633Y-58961952D01*
X85601585Y-58946079D01*
X85595517Y-58927209D01*
X85590361Y-58903941D01*
X85586051Y-58874878D01*
X85582519Y-58838622D01*
X85579697Y-58793770D01*
X85577518Y-58738928D01*
X85575914Y-58672697D01*
X85574818Y-58593677D01*
X85574164Y-58500471D01*
X85573884Y-58391679D01*
X85573909Y-58265903D01*
X85574172Y-58121745D01*
X85574606Y-57957807D01*
X85575145Y-57772689D01*
X85575679Y-57593831D01*
X85576205Y-57434974D01*
X85576750Y-57295916D01*
X85577345Y-57175265D01*
X85578019Y-57071628D01*
X85578803Y-56983611D01*
X85579726Y-56909823D01*
X85580820Y-56848869D01*
X85582112Y-56799357D01*
X85583635Y-56759893D01*
X85585419Y-56729084D01*
X85587492Y-56705538D01*
X85589885Y-56687860D01*
X85592630Y-56674659D01*
X85595756Y-56664540D01*
X85599291Y-56656111D01*
X85603190Y-56647975D01*
X85622837Y-56611144D01*
X85641625Y-56580992D01*
X85642672Y-56579508D01*
X85657002Y-56557260D01*
X85662911Y-56544302D01*
X85661904Y-56543849D01*
X85644705Y-56542403D01*
X85608056Y-56541080D01*
X85554362Y-56539916D01*
X85486031Y-56538947D01*
X85405464Y-56538211D01*
X85315071Y-56537742D01*
X85217254Y-56537578D01*
X84771595Y-56537578D01*
X84768520Y-57714445D01*
X84765445Y-58891312D01*
X84738807Y-58950222D01*
X84726885Y-58974783D01*
X84709646Y-59005034D01*
X84696474Y-59022160D01*
X84688476Y-59030191D01*
X84680778Y-59045092D01*
X84389342Y-59045092D01*
X84388874Y-58952629D01*
X84388450Y-58837217D01*
X84388106Y-58706760D01*
X84387834Y-58560316D01*
X84387627Y-58396944D01*
X84387476Y-58215701D01*
X84387372Y-58015648D01*
X84387308Y-57795841D01*
X84387276Y-57555339D01*
X84387267Y-57293202D01*
X84387267Y-55101631D01*
X84425649Y-55063249D01*
X84452755Y-55039511D01*
X84479653Y-55027711D01*
X84515960Y-55024867D01*
X84567889Y-55024867D01*
X84567889Y-55112806D01*
X84569827Y-55162702D01*
X84588599Y-55273123D01*
X84625617Y-55374587D01*
X84678768Y-55465752D01*
X84745946Y-55545273D01*
X84825038Y-55611805D01*
X84913934Y-55664006D01*
X85010525Y-55700530D01*
X85112700Y-55720035D01*
X85218350Y-55721173D01*
X85325365Y-55702605D01*
X85431632Y-55662984D01*
X85528619Y-55605116D01*
X85613693Y-55530285D01*
X85682415Y-55442215D01*
X85733318Y-55343216D01*
X85764935Y-55235593D01*
X85775799Y-55121654D01*
X85775800Y-55024867D01*
X87396153Y-55024867D01*
X87607297Y-55024880D01*
X87811420Y-55024930D01*
X87995086Y-55025030D01*
X88159391Y-55025192D01*
X88305429Y-55025429D01*
X88434294Y-55025753D01*
X88547083Y-55026175D01*
X88644888Y-55026709D01*
X88728804Y-55027368D01*
X88799928Y-55028161D01*
X88859350Y-55029104D01*
X88908168Y-55030208D01*
X88947477Y-55031484D01*
X88978369Y-55032947D01*
X89001941Y-55034607D01*
X89019286Y-55036478D01*
X89031499Y-55038572D01*
X89039675Y-55040900D01*
X89044908Y-55043476D01*
X89050904Y-55047045D01*
X89057679Y-55050578D01*
X89063878Y-55054088D01*
X89069526Y-55058518D01*
X89074647Y-55064807D01*
X89079269Y-55073901D01*
X89083415Y-55086739D01*
X89087113Y-55104262D01*
X89090387Y-55127413D01*
X89093263Y-55157134D01*
X89095767Y-55194365D01*
X89097924Y-55240049D01*
X89099760Y-55295127D01*
X89101300Y-55360541D01*
X89102570Y-55437233D01*
X89103595Y-55526144D01*
X89104401Y-55628217D01*
X89104434Y-55634468D01*
X89105014Y-55744392D01*
G37*
D13*
%TO.C,Lg3*%
X79584800Y-66173600D02*
X83584800Y-70173600D01*
D11*
X80695800Y-66395600D02*
X80695800Y-69951600D01*
X81584800Y-66173599D02*
X81584800Y-70173601D01*
X82473800Y-66395600D02*
X82473800Y-69951600D01*
X79584799Y-68173600D02*
G75*
G02*
X83584801Y-68173600I2000001J-1999999D01*
G01*
X83584800Y-68173599D02*
G75*
G02*
X79584800Y-68173599I-2000000J1999999D01*
G01*
D13*
X84443006Y-68173600D02*
G75*
G02*
X78726594Y-68173600I-2858206J0D01*
G01*
X78726594Y-68173600D02*
G75*
G02*
X84443006Y-68173600I2858206J0D01*
G01*
D11*
X83584801Y-68173600D02*
G75*
G02*
X79584799Y-68173600I-2000001J0D01*
G01*
X79584799Y-68173600D02*
G75*
G02*
X83584801Y-68173600I2000001J0D01*
G01*
%TD*%
M02*
